<svg width="40" height="40" viewBox="0 0 24 24" fill="none" xmlns="http://www.w3.org/2000/svg">
  <path d="M12 2C6.48 2 2 6.48 2 12s4.48 10 10 10 10-4.48 10-10S17.52 2 12 2zm0 18c-4.41 0-8-3.59-8-8 0-1.85.63-3.55 1.69-4.9l1.42 1.42C6.11 9.89 6 10.94 6 12c0 3.31 2.69 6 6 6 1.06 0 2.11-.11 3.08-.31l1.42 1.42C15.55 19.37 13.85 20 12 20zm6.31-3.1l-1.42-1.42C17.89 14.11 18 13.06 18 12c0-3.31-2.69-6-6-6-1.06 0-2.11.11-3.08.31L7.5 4.89C8.45 4.63 9.7 4.5 11 4.5c4.41 0 8 3.59 8 8 0 1.3-.13 2.55-.39 3.69l1.42 1.42C19.37 15.55 20 13.85 20 12c0-4.41-3.59-8-8-8-1.85 0-3.55.63-4.9 1.69L5.69 4.69C7.05 3.63 8.85 3 11 3c5.52 0 10 4.48 10 10 0 2.15-.63 4.05-1.69 5.31z" fill="url(#paint0_linear)"/>
  <defs>
    <linearGradient id="paint0_linear" x1="2" y1="2" x2="22" y2="22" gradientUnits="userSpaceOnUse">
      <stop offset="0.259336" stop-color="#FFDB6E"/>
      <stop offset="1" stop-color="#FFBC5E"/>
    </linearGradient>
  </defs>
</svg>