<svg width="40" height="40" viewBox="0 0 24 24" fill="none" xmlns="http://www.w3.org/2000/svg">
  <path d="M12 2C7.03 2 3 3.79 3 6v12c0 2.21 4.03 4 9 4s9-1.79 9-4V6c0-2.21-4.03-4-9-4zm0 2c4.42 0 7 1.57 7 2s-2.58 2-7 2-7-1.57-7-2 2.58-2 7-2zm0 16c-4.42 0-7-1.57-7-2v-2c1.67 1.33 4.42 2 7 2s5.33-.67 7-2v2c0 .43-2.58 2-7 2zm0-4c-4.42 0-7-1.57-7-2v-2c1.67 1.33 4.42 2 7 2s5.33-.67 7-2v2c0 .43-2.58 2-7 2zm0-4c-4.42 0-7-1.57-7-2V8c1.67 1.33 4.42 2 7 2s5.33-.67 7-2v2c0 .43-2.58 2-7 2z" fill="url(#paint0_linear)"/>
  <defs>
    <linearGradient id="paint0_linear" x1="2" y1="2" x2="22" y2="22" gradientUnits="userSpaceOnUse">
      <stop offset="0.259336" stop-color="#FFDB6E"/>
      <stop offset="1" stop-color="#FFBC5E"/>
    </linearGradient>
  </defs>
</svg>