<svg width="40" height="40" viewBox="0 0 40 40" fill="none" xmlns="http://www.w3.org/2000/svg">
  <rect width="40" height="40" rx="8" fill="url(#paint0_linear)"/>
  <path d="M20 10C15.58 10 12 13.58 12 18C12 22.42 15.58 26 20 26C24.42 26 28 22.42 28 18C28 13.58 24.42 10 20 10ZM20 24C16.69 24 14 21.31 14 18C14 14.69 16.69 12 20 12C23.31 12 26 14.69 26 18C26 21.31 23.31 24 20 24Z" fill="white"/>
  <path d="M20 0C8.95 0 0 8.95 0 20C0 31.05 8.95 40 20 40C31.05 40 40 31.05 40 20C40 8.95 31.05 0 20 0ZM20 38C9.61 38 2 30.39 2 20C2 9.61 9.61 2 20 2C30.39 2 38 9.61 38 20C38 30.39 30.39 38 20 38Z" fill="white"/>
  <defs>
    <linearGradient id="paint0_linear" x1="0" y1="0" x2="40" y2="40" gradientUnits="userSpaceOnUse">
      <stop stop-color="#FFDB6E"/>
      <stop offset="1" stop-color="#FFBC5E"/>
    </linearGradient>
  </defs>
</svg>